<svg width="36" height="34" viewBox="0 0 36 34" fill="none" xmlns="http://www.w3.org/2000/svg">
<path fill-rule="evenodd" clip-rule="evenodd" d="M13.4634 3.58726L24.7394 8.66047C28.1671 10.2026 30.8648 11.4163 32.6948 12.5656C34.5024 13.7008 35.9149 15.0468 35.9149 16.9998C35.9149 18.9528 34.5024 20.2987 32.6948 21.4339C30.8648 22.5833 28.1671 23.7969 24.7394 25.3391L13.4634 30.4123C11.3683 31.3549 9.73851 32.0882 8.46589 32.564C7.22057 33.0297 6.10759 33.3356 5.11795 33.2279C2.71759 32.9669 0.652096 31.3209 0.152197 28.9971C-0.0596762 28.0122 0.236584 26.9104 0.662238 25.7658C1.10296 24.5807 1.80343 23.0591 2.6958 21.1206L2.71986 21.0683C3.4173 19.5533 3.68571 18.9555 3.82266 18.359C4.02867 17.4619 4.02867 16.5377 3.82266 15.6405C3.68571 15.0441 3.4173 14.4462 2.71986 12.9312L2.6958 12.8789C1.80343 10.9404 1.10296 9.41882 0.662237 8.23373C0.236584 7.08916 -0.059676 5.98737 0.152199 5.00246C0.652099 2.67864 2.71759 1.03263 5.11795 0.771604C6.10759 0.663988 7.22057 0.969817 8.46589 1.4355C9.73851 1.91139 11.3683 2.64467 13.4634 3.58726ZM7.59025 3.77713C6.36663 3.31956 5.74153 3.21853 5.38822 3.25695C3.90811 3.4179 2.83921 4.399 2.59629 5.52823C2.55109 5.73834 2.58265 6.22542 3.00545 7.36232C3.40922 8.44806 4.06921 9.88382 4.9908 11.8858C5.01099 11.9297 5.03094 11.973 5.05066 12.0158C5.66901 13.3586 6.05743 14.2021 6.25924 15.081C6.54981 16.3464 6.54981 17.6532 6.25924 18.9186C6.05743 19.7974 5.66901 20.6409 5.05066 21.9837C5.03094 22.0266 5.01098 22.0699 4.9908 22.1137C4.06921 24.1157 3.40923 25.5515 3.00545 26.6372C2.58265 27.7741 2.55109 28.2612 2.59629 28.4713C2.8392 29.6005 3.90811 30.5816 5.38822 30.7426C5.74152 30.781 6.36662 30.68 7.59025 30.2224C8.77744 29.7785 10.3332 29.0792 12.4828 28.1121L23.6126 23.1047C27.1631 21.5073 29.7 20.3626 31.3652 19.3168C33.0708 18.2457 33.4149 17.5498 33.4149 16.9998C33.4149 16.4497 33.0708 15.7539 31.3652 14.6827C29.7001 13.637 27.1631 12.4923 23.6126 10.8949L12.4828 5.88745C10.3332 4.92031 8.77745 4.22108 7.59025 3.77713Z" fill="url(#paint0_linear_211_2505)"/>
<defs>
<linearGradient id="paint0_linear_211_2505" x1="0.0820314" y1="11.8243" x2="26.6668" y2="17.9187" gradientUnits="userSpaceOnUse">
<stop stop-color="#9068C1"/>
<stop offset="1" stop-color="#3892DB"/>
</linearGradient>
</defs>
</svg>
